<?xml version="1.0" encoding="UTF-8"?>
<svg id="Layer_1" xmlns="http://www.w3.org/2000/svg" version="1.1" viewBox="0 0 7000 5000">
  <!-- Generator: Adobe Illustrator 29.5.1, SVG Export Plug-In . SVG Version: 2.1.0 Build 141)  -->
  <defs>
    <style>
      .st0 {
        fill: #fd4239;
      }

      .st1 {
        fill: #f85f34;
      }

      .st2 {
        fill: #3c9f95;
      }

      .st3 {
        fill: #dfe0df;
      }

      .st4 {
        fill: #fa7435;
      }

      .st5 {
        fill: #f99633;
      }

      .st6 {
        fill: #ff7a05;
      }

      .st7 {
        fill: #fff;
      }

      .st8 {
        fill: #ffc41b;
      }

      .st9 {
        fill: #e7f1ee;
      }

      .st10 {
        fill: #58150e;
      }

      .st11 {
        fill: #d38458;
      }

      .st12 {
        fill: #eed4cf;
      }

      .st13 {
        fill: #feba8b;
      }

      .st14 {
        fill: #5f4951;
      }

      .st15 {
        fill: #334d3c;
      }

      .st16 {
        fill: #f48d56;
      }

      .st17 {
        fill: #453027;
      }

      .st18 {
        fill: #aa5b3c;
      }

      .st19 {
        fill: #fcac1c;
      }

      .st20 {
        fill: #fbf3e9;
      }
    </style>
  </defs>
  <g id="Generative_Object">
    <path class="st6" d="M3946.4,3701.2c.2.8,9,8.4,8.7,13.1-295.3.1-591.6.1-887,0-.5-4.2.9-9.1,0-13.1h878.2Z"/>
    <path class="st7" d="M2806,2635.1c-29.3,266.9-368.1,171.6-445.7-24-14.2-35.8-14-112.7-45.9-133.3l-360.5-83c.3-1.7-13.4-24.3,2.2-26.2l353.9,87.4c60.7,62.8,52.9,148.5,111.4,220.7,103.8,128.1,360.9,173,362.7-48.1l8.7-4.4c8.9,0,12.3,10.7,13.1,10.9Z"/>
    <path class="st7" d="M1884,1831.1c-45.9,120.7-99.9,239.2-144.2,360.5-44.4,121.5-146.8,302.9-35,408.5-24.7-12.7-56.9-46.6-65.5-72.1-44-129.1,165.3-527.3,218.5-668.5,6.1-16.2-7.2-36.6,15.3-50.2,11,3.6,10.1,21,10.9,21.8Z"/>
    <path class="st7" d="M2071.9,3701.2c-12.1,2.4-9.7-12.9-8.7-19.7,16.6-114.4,40.7-201.1,43.7-323.3,3.5-142.4-21.7-292-17.5-430.4,44.5,199.1,59.5,411.3,26.2,613.9-5.1,30.8-28.8,137-43.7,159.5Z"/>
    <g>
      <path class="st0" d="M1866.6,2464.7c20,1.1,50.8-58.6,65.5-69.9,11,34.2-6.9,49-26.2,74.3-15.5,13.8-80.8,46.7-61.2,56.8,45.1,23.3,102.6-94.5,109.2-131.1l360.5,83c31.8,20.6,31.7,97.4,45.9,133.3,77.6,195.7,416.4,290.9,445.7,24,19.8,5.2,39.2,7.7,56.8,19.7-6,28.4,18.5,192.8,13.1,205.4s-36.3,13.8-43.7,30.6c-25.2,57,56.7,190,48.1,240.3s-57.6,54.5-65.5,83,5.8,51.4,4.4,78.6c-1,19-14.1,57.7-13.1,74.3,3.7,63.5,86.2,129.1,139.8,152.9l-4.4,194.4c-292.7-.1-585.6.9-878.2,0-2-9.9,4.4-6.6,8.7-13.1,14.9-22.5,38.6-128.7,43.7-159.5,33.3-202.6,18.3-414.8-26.2-613.9.1-3.5-9.9-14.2-2.2-21.8,83.5,29.8,93.3-189.8,80.8-238.1-2.6-10.2-11.1-41.4-26.2-19.7-2.7-4.3,2.5-14.7-13.1-6.6,24.4,72.4,14.1,154.4-13.1,225-40.3-39.9-81-74.7-128.9-104.9-5.9-3.7-14.1,6.5-17.5,4.4-54.4-34.4-230.6-134.2-264.3-166-111.9-105.6-9.4-287.1,35-408.5,44.3-121.3,98.3-239.8,144.2-360.5,11.3,12.2,48.2,45,63.4,48.1,41.7,8.6,87.6-10.7,128.9-6.6-17.6,18.4-27.4,46.4-35,69.9-39.7,123.4-74.4,355.5-135.4,454.4-9.4,15.2-68.7,66.1-39.3,67.7Z"/>
      <path class="st10" d="M2382.1,3430.3c-54.7-107.9-114.4-221.4-113.6-345.2,1-.3-1.8-18.5,13.1-2.2,1.3,64,17.3,128.2,39.3,187.9,9.7,26.2,73.7,136.1,74.3,144.2,1.3,18-12.5,14.5-13.1,15.3Z"/>
      <path class="st10" d="M2259.8,3089.5c-3.7,122.3,53,244.6,118,345.2-.7.5,0,15-10.9,13.1-43.5-67.8-144.3-276.7-120.2-351.7,2.3-7.3,12.6-6,13.1-6.6Z"/>
      <path class="st7" d="M2268.5,3085.1c-.8,123.8,58.9,237.3,113.6,345.2-1.9,2.7-1.7,2.4-4.4,4.4-64.9-100.6-121.7-222.9-118-345.2,5.1-5.7,3.6-2.7,8.7-4.4Z"/>
      <path class="st12" d="M1932.1,2394.8c-14.8,11.3-45.5,71-65.5,69.9l56.8-80.8c11.4-8.5,7.5,7,8.7,10.9Z"/>
      <path class="st12" d="M1905.9,2469.1c-19.3,25.2-36.6,38.1-61.2,56.8-19.7-10.2,45.7-43,61.2-56.8Z"/>
    </g>
    <path class="st7" d="M4575.5,2451.6c-61.3,127.6-235.1,484.1-404.2,467.5-98.6-9.7-108.8-192.2-107-264.3.4-16,20.8-96.2,6.6-102.7-180.9,1.3-189.7,137.3-177,284-6,28.2-6,58.6-17.5,85.2,4.4-67.9-5.9-142.7,0-209.7,13.6-154.2,77.6-145,211.9-168.2-31.3,219,16,525.4,264.3,246.9,88.7-99.4,133.1-251.4,201-332.1,7.5-8.9,11.4-14.6,21.8-6.6Z"/>
    <path class="st7" d="M4051.2,3701.2c-30.2-137.1-39.5-290.5-91.8-421.6-16.9-42.3-55.8-89.8-69.9-131.1-47.3-138.1,31.7-332.9,52.4-474.1,10.9,94.8-38.8,232.7-48.1,329.9-15.9,167.4,61.5,194.8,104.9,332.1,19.3,61.2,66.5,312.3,52.4,364.8Z"/>
    <path class="st7" d="M5016.8,2206.9c-39.9,19.1-76,46.2-115.8,65.5-187.1,91.2-269.6,50.4-325.5,290.6-7.9,34.1-4.8,86.9-26.2,111.4,11.6-86.6,25.8-211,78.6-281.8,77.4-103.8,290.1-113.9,391.1-203.2,7.3,6.7-2.4,13.9-2.2,17.5Z"/>
    <path class="st7" d="M4737.2,3351.7c6.6-91.5,8.8-186.7,21.8-277.5s14.7-98.1,35-128.9c-11.6,67.7-19.4,139.2-26.2,207.5-6.4,64.8,9.8,149.2-30.6,198.8Z"/>
    <path class="st7" d="M4824.6,3701.2c-46.7-41.2-46.5-117.8-74.3-170.4,7.1-6.6,7.3-30.1,26.2-10.9-7.7,39.4,57.5,156.5,56.8,179.1-.1,3.6-8.5,1.7-8.7,2.2Z"/>
    <path class="st9" d="M5082.4,2220c-12.8,8.6,30.7,75.3,8.7,69.9-7.6-22.7-20.2-41.9-26.2-65.5-1.5-6.1-1.8-15-4.4-21.8l2.2-8.7c3.2,6.1,15.2,23.2,19.7,26.2Z"/>
    <g>
      <path class="st2" d="M5016.8,2206.9c1.7,32.6-5.6,154.3,4.4,172.6,3,5.6,8.7,2.8,13.1-2.2,12.3-13.9,3.5-143.5,13.1-170.4,9.9,3.8,10,16.7,13.1,26.2,6.9,21.2,11.7,42.1,30.6,56.8,22,5.4-21.6-61.3-8.7-69.9,80,54,178.4,79.3,257.8,8.7-1.8,12-8.6,42.8-13.1,52.4-26.8,56.9-325.3,333.8-393.2,406.3l-150.7,148.6-6.6-10.9c14.7-93.6,88.9-151.8,144.2-220.7-10.8-22.4-75.3,48.9-87.4,63.4-38.4,45.8-53.6,82.7-74.3,137.6-14.7-.2-20.4-40.8-21.8-50.2-4.3-28.6-1.6-169.2-8.7-177s-9.2-5.7-10.9-4.4c-12.8,94-26,221.2,52.4,292.7,25.9,3.5,35-23.3,54.6-32.8-18.1,34.9-24.1,73.2-30.6,111.4-20.2,30.8-29.3,89.7-35,128.9-13.1,90.7-15.3,185.9-21.8,277.5-1.7,23.3-2.9,47-4.4,69.9-3,44.8,3.4,90.3-17.5,133.3,3.5,16.7,10,.4,13.1-2.2,8.5-7,14.1-14.5,21.8-21.8,27.8,52.6,27.6,129.2,74.3,170.4-2.4,4.1-5.4,7.7-4.4,13.1-257.7.5-515.6-.1-773.4,0,3.8-5,3.1-8.5,4.4-13.1,14-52.6-33.1-303.6-52.4-364.8-43.3-137.3-120.8-164.7-104.9-332.1,9.2-97.2,58.9-235.1,48.1-329.9-.9-8,11.3-16.7-2.2-17.5-18.1,57.9-33.2,119.1-45.9,179.1-12.7-146.7-4-282.7,177-284,14.2,6.4-6.2,86.7-6.6,102.7-1.7,72.2,8.4,254.7,107,264.3,169.1,16.6,342.9-339.9,404.2-467.5l8.7,6.6c-19.3,32.2-58.7,238.1-48.1,257.8,14.3,26.4,12.6-37.9,13.1-41.5,21.4-24.6,18.3-77.3,26.2-111.4,55.9-240.2,138.4-199.4,325.5-290.6,39.7-19.4,75.9-46.4,115.8-65.5Z"/>
      <path class="st10" d="M4042.5,3211.9c42.2,4.2,84.4,3.1,126.7,4.4,15.1.5,116.3-8,100.5,13.1l-231.6-2.2,126.7,211.9c3.4,11.6,10.9,15.7,8.7,28.4-33.6-40.9-158.6-199.9-144.2-249.1,2-6.9,12.4-6,13.1-6.6Z"/>
      <path class="st7" d="M4933.8,2687.5c-19.8,21.2-135.5,164-146.4,166-7.3,1.4-17.5-5.3-19.7-10.9-21.9-56.4,101.7-208.9,152.9-238.1-55.3,68.8-129.5,127.1-144.2,220.7l6.6,10.9,150.7-148.6Z"/>
      <path class="st7" d="M4593,3316.7c20.8-93.1,57.2-185.2,74.3-279.6l13.1,2.2c-25.9,106-47.3,220.2-91.8,319,1.8-12,1.9-30.5,4.4-41.5Z"/>
      <path class="st9" d="M4269.7,3229.3c-17.2,23-184.9-2.2-218.5,2.2,19.6,79.6,90.5,128.9,113.6,207.5l-126.7-211.9,231.6,2.2Z"/>
      <path class="st10" d="M4667.3,3037.1c-17.1,94.5-53.5,186.6-74.3,279.6-6.8-2-5.2-18.9-4.4-24,4.7-28.2,58.1-250.5,67.7-260s7.2,4.8,10.9,4.4Z"/>
      <path class="st7" d="M4728.5,3552.7c-3.1,2.5-9.6,18.9-13.1,2.2,20.9-42.9,14.5-88.4,17.5-133.3l26.2,37.1-30.6,93.9Z"/>
      <path class="st9" d="M4169.2,3216.2c-42.3-1.3-84.6-.2-126.7-4.4.7-.5-1.8-7.5,2.2-8.7,15-4.8,104,6.1,124.5,13.1Z"/>
      <path class="st17" d="M5091.1,2289.9c-18.9-14.7-23.7-35.6-30.6-56.8l4.4-8.7c6,23.6,18.7,42.8,26.2,65.5Z"/>
      <path class="st15" d="M5060.5,2202.5c2.5,6.9,2.8,15.7,4.4,21.8l-4.4,8.7c-3.1-9.5-3.2-22.4-13.1-26.2,2.2-6,4.2-4.1,4.4-4.4.3-.5,6.2.3,8.7,0Z"/>
    </g>
    <path class="st8" d="M3256,2346.7c10,17.7,15.2,41.6,26.2,59,117.8,186,422,172.2,487.2-50.2,3.7-1.8,74.4,23.4,78.6,26.2,12.3,8.4,17.8,29.3,30.6,39.3,44,34.5,72.5,19.6,120.2,35l65.5,74.3c-62.9,20.1-156.1,18.7-183.5,89.6-25.8,66.8-26.6,458.6-4.4,528.7,13.2,41.5,72.3,115.4,78.6,152.9,17.1,101.5-29.2,304-8.7,399.8h-878.2c-12.2-54.7-14.4-122.1-2.2-179.1,73.9,2.9,178-.5,201-87.4h485c33.7-19.2,38.3-40.9,37.1-76.5-4.5-142.4-67.8-325.3-78.6-471.9l-28.4-24h-537.4c-15.8-120.8-51-244.6-124.5-343-21.9-29.3-51.9-52.2-74.3-80.8,92.9-56.6,206.1-66.5,310.2-91.8Z"/>
    <path class="st2" d="M5340.2,2215.6c-57.1,44.3-95.2,52.7-166,35-25.7-22.9-62.3-29.4-83-59s-1.2-21.6-4.4-28.4c74.6,14.8,177.5,40.6,235.9-19.7l-10.9-2.2c-48.1,31.1-121.8,34.2-177,21.8l-65.5-50.2-4.4-32.8c112.9-22.4,111.4,17.4,214.1-74.3,38.5,76.6,69.6,120.1,61.2,209.7Z"/>
    <path class="st7" d="M3256,2346.7c-104.2,25.3-217.3,35.2-310.2,91.8-.5-.6-10.6.3-13.1-6.6-3.3-38.4,272.7-91.7,312.4-102.7,14.2-.2,9,14.1,10.9,17.5Z"/>
    <g>
      <path class="st10" d="M4820.2,3714.3c-1-5.4,1.9-9,4.4-13.1s8.6,1.4,8.7-2.2c.7-22.6-64.5-139.8-56.8-179.1-18.9-19.2-19.1,4.3-26.2,10.9-7.8,7.3-13.4,14.8-21.8,21.8l30.6-93.9-26.2-37.1c1.5-23,2.7-46.6,4.4-69.9,40.4-49.6,24.1-134,30.6-198.8,6.8-68.4,14.6-139.9,26.2-207.5,6.5-38.2,12.5-76.5,30.6-111.4-19.6,9.4-28.8,36.3-54.6,32.8-78.4-71.6-65.3-198.8-52.4-292.7,1.8-1.3,10,3.3,10.9,4.4-13.4,78.9-14.9,179.6,24,249.1,1.7-7.9,3.7-14.3,6.6-21.8,20.6-54.9,35.9-91.8,74.3-137.6,12.1-14.5,76.5-85.8,87.4-63.4-51.2,29.2-174.9,181.7-152.9,238.1,2.2,5.7,12.4,12.3,19.7,10.9,10.9-2.1,126.5-144.8,146.4-166,67.9-72.6,366.4-349.5,393.2-406.3,75.9-91,10.7-196.3-30.6-286.2l-6.6-6.6c-6.6,3.4-7.1,14.1-10.9,17.5-102.7,91.6-101.2,51.9-214.1,74.3-.7.1-9.7-10.2-13.1,2.2-13.1,47.2,44.4,72.2,83,80.8,55.1,12.4,128.9,9.3,177-21.8l10.9,2.2c-58.4,60.2-161.3,34.5-235.9,19.7-12.6-26.5-32.4-6.5-13.1,28.4,13.1,23.7,73.8,52.3,100.5,59,70.9,17.8,108.9,9.4,166-35-.4,4.3.6,8.9,0,13.1-79.4,70.6-177.8,45.3-257.8-8.7-4.4-3-16.4-20.1-19.7-26.2l-2.2,8.7c-2.5.3-8.4-.5-8.7,0l-2.2-56.8c-27.7,73.3-23.8,155.2-15.3,231.6-4.4,5-10.1,7.7-13.1,2.2-10-18.3-2.7-140-4.4-172.6-.2-3.6,9.5-10.7,2.2-17.5-101,89.3-313.7,99.4-391.1,203.2-52.8,70.9-67,195.2-78.6,281.8-.5,3.6,1.2,67.9-13.1,41.5-10.7-19.7,28.7-225.5,48.1-257.8l-8.7-6.6c-10.4-8.1-14.3-2.4-21.8,6.6-67.9,80.6-112.3,232.6-201,332.1-248.4,278.6-295.6-27.8-264.3-246.9-134.3,23.3-198.4,14-211.9,168.2-5.9,67,4.4,141.8,0,209.7,11.5-26.6,11.5-57,17.5-85.2,12.7-60,27.8-121.2,45.9-179.1,13.5.7,1.3,9.5,2.2,17.5-20.7,141.2-99.7,336-52.4,474.1,14.1,41.2,53.1,88.8,69.9,131.1,52.2,131.1,61.5,284.5,91.8,421.6-1.2,4.6-.6,8.1-4.4,13.1-30.5,0-61.2,0-91.8,0,.2-4.7-8.6-12.3-8.7-13.1-20.5-95.8,25.8-298.3,8.7-399.8-6.3-37.6-65.5-111.4-78.6-152.9-22.2-70.1-21.5-461.9,4.4-528.7,27.4-70.8,120.7-69.5,183.5-89.6,6.2-2,29.7.8,30.6-10.9-22.5-11-58.4-54.5-76.5-63.4-3.6-1.8-14.7,1.6-19.7,0-47.6-15.4-76.1-.4-120.2-35-12.8-10.1-18.3-31-30.6-39.3s-74.9-28-78.6-26.2c-65.2,222.4-369.4,236.3-487.2,50.2-11-17.4-16.2-41.2-26.2-59-1.9-3.3,3.2-17.7-10.9-17.5-39.7,11-315.7,64.3-312.4,102.7,2.5,6.9,12.7,6,13.1,6.6,22.4,28.7,52.4,51.5,74.3,80.8,73.5,98.4,108.7,222.2,124.5,343h537.4l28.4,24c10.8,146.6,74.2,329.4,78.6,471.9,1.1,35.6-3.5,57.3-37.1,76.5h-485c-23,86.8-127.1,90.3-201,87.4-12.3,57.1-10,124.5,2.2,179.1.9,4-.5,8.9,0,13.1-42.2,0-84.5,0-126.7,0l4.4-194.4c-53.6-23.8-136.1-89.4-139.8-152.9-1-16.6,12.1-55.3,13.1-74.3,1.4-27.2-11.1-54.7-4.4-78.6s61.3-58.1,65.5-83c8.6-50.3-73.2-183.3-48.1-240.3,7.4-16.8,41.4-25.3,43.7-30.6,5.4-12.5-19.1-177-13.1-205.4-17.6-11.9-37-14.5-56.8-19.7-.8-.2-4.2-10.9-13.1-10.9l-8.7,4.4c-1.8,221-258.8,176.2-362.7,48.1-58.5-72.2-50.7-157.9-111.4-220.7l-353.9-87.4c-15.5,1.9-1.9,24.5-2.2,26.2-6.6,36.6-64.2,154.3-109.2,131.1,24.6-18.7,41.9-31.6,61.2-56.8,19.3-25.2,37.2-40.1,26.2-74.3s2.7-19.5-8.7-10.9l-56.8,80.8c-29.4-1.6,29.9-52.5,39.3-67.7,61-98.9,95.7-331,135.4-454.4,7.6-23.5,17.4-51.5,35-69.9-41.3-4.1-87.2,15.1-128.9,6.6-15.1-3.1-52-35.9-63.4-48.1-.8-.9,0-18.3-10.9-21.8-22.5,13.6-9.2,34-15.3,50.2-53.2,141.2-262.5,539.4-218.5,668.5,8.7,25.4,40.8,59.4,65.5,72.1,33.8,31.9,209.9,131.6,264.3,166,3.4,2.1,11.6-8.1,17.5-4.4,47.9,30.2,88.5,65,128.9,104.9-3.6,9.3,4.9,14.7,4.4,15.3-3.7,4.8-12.6.8-17.5,2.2-18.9-33.9-54.8-66.5-87.4-87.4-1.5-1-5.5-14.6-13.1-6.6,2.5,6.9,12.7,6,13.1,6.6,11.1,14.8,65.7,92.1,74.3,96.1,7.3,3.4,16.3,7.5,24,4.4,38.9-15.7,53.1-210.2,28.4-249.1,15.1-21.7,23.6,9.4,26.2,19.7,12.5,48.4,2.7,267.9-80.8,238.1-7.7,7.6,2.3,18.4,2.2,21.8-4.2,138.4,21,287.9,17.5,430.4-3,122.2-27.1,209-43.7,323.3-1,6.8-3.4,22.1,8.7,19.7-4.3,6.5-10.7,3.2-8.7,13.1-103-.3-207.7,5.7-310.2-6.6l290.6-6.6c1.4-4.7,4.9-7.9,6.6-10.9,56.9-102.3,46.4-623.1,26.2-751.5-33-209.4-408.8-274.8-450-410.7-41.2-135.6,160.9-525,218.5-668.5,6.4-15.9-2.2-56.4,24-67.7,8.7-3.7,18.3,5.6,21.8,4.4,65.4-22.3,28.5-307.2,72.1-377.9,19.8-32.2,38.5-22.3,59-37.1s13.6-31.3,35-39.3c29.1-11,57.7,16.4,63.4,6.6,11.1-39.7,23.2-217.6,54.6-233.8,44.6-22.9,42.3,47.4,41.5,72.1-1.9,57.7-25.8,118.2-24,177,9,6,106.2-162.7,126.7-174.8,10.5-6.2,22.6-11.5,35-4.4,21.3,19.3-25.8,101.3-37.1,124.5-12.2,24.8-90.5,145.9-91.8,157.3-1,9.2,11.2,33.1,8.7,48.1-20.9,126.6-128.8,204.7-144.2,297.1-4.6,27.3,7.9,39.9,4.4,56.8-1.4,6.7-28.9,42.3-35,61.2-43.9,137.6-74.8,280.3-113.6,419.5,34.1,10.4,287.1,81.5,297.1,69.9,6.1-84.7-78.4-68.4-69.9-166,7.1-81.7,101.5-89.2,104.9-96.1s-12.8-29.6-13.1-35c-6-118.2,89.6-163.3,194.4-172.6,20.6-143.9,160.6-254.6,305.9-227.2,18.3,3.5,58.7,28.8,74.3,26.2,3.2-.5,38.6-27.6,56.8-30.6,148.4-24.3,250.2,126.9,268.7,255.6,7.6,53-4.2,128.5,8.7,174.8,19.6,70.1,121.8,74.8-4.4,179.1,2.5,10.4,126.7-16.7,137.6-24,20.5-13.7,32.3-118.4,28.4-142s-44.1-112.9-48.1-118c-8.1-10.2-30.7-10.3-41.5-19.7-47.1-41.1-26-89.8-37.1-133.3-1.6-6.2-38.6-51.2-43.7-69.9-12.2-44.5-4.9-109.1,0-144.2,9.9-71.5,10.3-82.4,67.7-133.3,102.3-90.7,346.3-177.3,439.1-37.1,5.4,8.1.2,30,10.9,37.1,1.5,1,30.3,2,35,4.4,104,51.9,116.8,153.8,93.9,260-3.1,14.6-30.4,66.1-30.6,69.9-.7,15.2,26.8,27.4,21.8,69.9-8.5,73.4-73.6,77.5-96.1,109.2-41.3,58.2-38.1,208.4,10.9,264.3l124.5,41.5c-44.4-141.6-18.7-348.5,39.3-485,54.4-127.9,198.6-219.7,338.6-203.2,207.1,24.4,423.9,393,373.6,587.7-20.7,80.1-87.2,114-152.9,152.9,4.8,18.3,138.5,22.5,146.4,19.7s36.6-57.8,45.9-67.7c72.3-77.3,241.6-99.4,338.6-159.5,18.7-11.6,73.8-51.5,76.5-72.1.6-4.8-13.3-27.6-13.1-30.6,1.4-18.5,13.4-35.6,13.1-52.4-.7-36.1-110.8-303.2-135.4-336.4-45.4-61.2-179.8-82.9-166-179.1,1.5-10.2,26.6-49.5,26.2-52.4-1.2-8.2-111.9-86.6-128.9-102.7-13.9-13.2-119.7-109.3-65.5-122.3s149.9,117.7,192.3,126.7c7.4-1.2,2.8-20.8,2.2-24-8.3-42.6-97.6-178.1-83-214.1,16.5-40.9,68.2,33.1,78.6,48.1,20.7,29.6,68,143,83,157.3,12.3,11.7,24.5-2.8,37.1,2.2,184.3,73.1,124.5,173.7,194.4,303.7,81.5,151.3,338.1,397.4,284,581.1-33.6,114-417.3,411.3-506.8,550.5s-66.5,354.9-87.4,502.5c57.5-15.8,33.9,16.8,43.7,35,4.5,8.4,23.8,19.1,26.2,30.6,5.8,27.4-17.4,49.2-35,65.5,66.8,13.8,7.1,65.4,8.7,69.9s21.4-4.3,26.2,8.7c13.6,36.5-41.9,44.7-43.7,48.1-6.5,11.8,37.4,128.8,48.1,148.6l406.3,13.1c-144.1,4.2-288.5,1.9-432.6,2.2Z"/>
      <path class="st7" d="M2141.8,2648.2c24.7,38.8,10.5,233.3-28.4,249.1-7.8,3.1-16.8-1-24-4.4.4-2.5,12.4-8.5,13.1-8.7,4.9-1.4,13.8,2.6,17.5-2.2s-8-6-4.4-15.3c27.2-70.6,37.5-152.6,13.1-225,15.6-8.2,10.4,2.3,13.1,6.6Z"/>
      <path class="st7" d="M5327.1,2281.2c4.5-9.6,11.3-40.5,13.1-52.4s-.4-8.8,0-13.1c8.4-89.6-22.7-133.1-61.2-209.7,3.8-3.4,4.3-14.1,10.9-17.5l6.6,6.6c41.2,89.9,106.5,195.2,30.6,286.2Z"/>
      <path class="st7" d="M5051.8,2202.5c-.2.3-2.2-1.6-4.4,4.4-9.6,26.9-.8,156.5-13.1,170.4-8.5-76.3-12.4-158.3,15.3-231.6l2.2,56.8Z"/>
      <path class="st9" d="M4759.1,2805.5c-2.8,7.5-4.8,13.9-6.6,21.8-38.9-69.4-37.4-170.2-24-249.1,7.2,7.8,4.4,148.3,8.7,177s7.1,50.1,21.8,50.2Z"/>
      <path class="st13" d="M4440.1,2438.5c30.9,20.7,58.5,31.5,96.1,24-39.3,131.6-402.2,695.3-441.3,270.9-1.8-20-3.3-179.1,0-187.9,5.8-15.4,55.8-12.3,67.7-28.4l19.7,63.4c.9-47.8-15.6-94.9-17.5-142,110.1,59.3,173.3-50.2,205.4-139.8,6.5,46.2,30.5,113.5,69.9,139.8Z"/>
      <path class="st13" d="M5029.9,1560.3l-56.8-37.1c2.8,25.8,20,62.8,52.4,54.6,8.1,42,10.6,54.6,30.6,93.9,55.2,108.3,153.5,214.9,209.7,325.5-30.2,47.9-134.7,89.3-187.9,69.9-30.8-129.1-100.7-335.2-203.2-423.8-39.2-33.9-110.9-45.2-111.4-104.9,12.1-85.7,54.6-32.4,111.4-69.9,24.2,45.3-68.8,42.9-41.5,76.5,24.6,30.2,3.7-11.2,4.4-13.1,1-2.8,44.1-23.4,50.2-32.8,5.1,24.3,25.1,67.2,56.8,52.4,40.9-19.1,4.4-101.3-2.2-135.4,36.3,43.1,78.4,86.1,87.4,144.2Z"/>
      <path class="st11" d="M2548.2,2351.1c-7.7-1.2-8.3-11.8-8.7,2.2-1.4,42.3,31.2,96.3,63.4,124.5,30.6,26.9,110.6,75,102.7,0,14.6,10-11.6,61.1-4.4,89.6,12.1,47.5,84.1,11.7,69.9,104.9-14,92-124.2,108.9-198.8,89.6-96.2-25-198.1-146.2-207.5-244.7,101.3-27,121.4-143.7,157.3-227.2,8.1,19.1,16.4,43.3,26.2,61.2Z"/>
      <path class="st13" d="M3146.8,3146.3c1.7,18.6-11.8,43.2-21.8,56.8-27.1,36.5-81.2,65.5-113.6,98.3-1.4,5.5,1.5,13.5,6.6,15.3,11.9,4.3,193-109.7,231.6-96.1,32.6,11.4-31,64.4-43.7,74.3-22,17-159.1,79.5-155.1,98.3,26.1,18.6,223.4-69,227.2-30.6,2.8,28.1-152.1,75.7-174.8,91.8,3.4,18.5,153.2-51.9,144.2,0-.6,3.3-35.8,34.2-41.5,37.1-68.2,34.7-235.8,20.3-303.7-17.5-21.5-24-45.5-48-52.4-80.8-3.4-16-6.4-147-4.4-161.7,4.4-32,67.2-86.1,104.9-72.1,30.7,37.4-74.4,62.7-41.5,87.4,23.7,17.8,155-79,192.3-91.8,13.1-4.5,32.1-9.8,45.9-8.7Z"/>
      <path class="st14" d="M2268.5,2429.7c8-71.7-84-118.3-65.5-190.1,10.2-39.7,97.1-46.6,104.9-69.9,6.3-18.8-14.8-65.4-8.7-96.1,12.1-61.3,115-85.5,166-89.6,2.5,7.6,19.4,68.9,17.5,72.1s-28,7.1-37.1,15.3c-32.2,29-22.6,81.5-41.5,124.5-29.7,67.7-132.3,88.5-78.6,179.1,12.3,4.6-3.7-49,0-65.5,5.4-23.7,58.5-56.4,74.3-78.6,14.7-20.7,17.2-47.6,32.8-67.7,47.1,64.7,84.7,32.6,28.4,115.8-22.7,33.6-70.1,62.7-83,100.5s-6,69.5-6.6,107c-19.3,4.3-32.7-30-48.1-39.3s-46.2-12.5-54.6-17.5Z"/>
      <path class="st8" d="M2902.1,2857.9c11.2-88.3-36.7-317,8.7-386.7,4.1-6.3,15.2-15.4,21.8-19.7,115,65.5,188.6,278.6,196.6,404.2-5.8,12-203,7.5-227.2,2.2Z"/>
      <path class="st11" d="M2163.7,1376.7c77.2,53.1,52.4,187.1,13.1,260-20.3,37.7-57.7,70.3-78.6,113.6-14.6,30.1-18.8,69-35,98.3-28,17.1-145.1,16.5-152.9-19.7-1.4-6.2,43.4-91,48.1-118,13.4-77.4-10.2-161.4,17.5-233.8,18.7,35,26.1,54,59,78.6,6.1,4.6,21.9,3.3,24,6.6s-24.9,79.6,24,98.3c10.8-7.6,2.3-7.8,2.2-13.1-.4-14.6-7.6-29.3-4.4-45.9,6.4-32.9,74.9-82.8,78.6-100.5,6.2-29.3-38-93.9-35-128.9,1.5,0,2.9,0,4.4,0,7.9.5,23.3,8.5,35,4.4Z"/>
      <path class="st7" d="M3745.4,3421.6c3.8-20.6,16.5-16.2,0-48.1l-76.5-454.4-784.3,10.9,775.6,2.2,2.2,8.7-793-4.4,28.4,128.9,26.2,67.7c-8.2-2.1-29.8,3.5-30.6,2.2,6.9-50.6-99.9-240.8-24-260h808.3c6.6,5.1,14.8,7.9,19.7,15.3,13,19.6,76.9,420.6,78.6,463.1,1.1,27.6.4,55.8-30.6,67.7Z"/>
      <path class="st13" d="M3666.7,2172c2,34.4,2.4,83.6,13.1,115.8,7.9,23.7,38.8,47.4,39.3,52.4,3.3,31.1-89.4,117.4-120.2,128.9-97.4,36.3-274.5-25.5-290.6-135.4,38.9-11.8,42.4-69,43.7-104.9,60.2,92.2,174.4,154.2,257.8,50.2,24.8-30.9,35.5-74.1,56.8-107Z"/>
      <path class="st4" d="M3631.8,1612.7c-22.1,33.5-59.9,66.4-93.9,87.4-95.6,58.9-283.6,64.3-273.1,203.2-5.7,4.5-25.2-7.8-30.6-10.9l-48.1-113.6c17.8-4.4,51.6,3,72.1,0,109.5-16.2,301.9-116.1,338.6-229.4-90.2-34.3-173.1-21.5-255.6,24-28.3,15.6-130.6,106.7-159.5,96.1,52.8-124.1,240.7-207.5,369.2-196.6,98.3,8.3,116.1,52.9,80.8,139.8Z"/>
      <path class="st7" d="M4531.8,2338c119.6-191.4-99.2-589.7-308-624.8-132.9-22.4-270.1,58.6-321.1,181.3-45.3,109-95.3,405.5-8.7,495.9-18.5,8-23.1-14-35-21.8-90.7-185.5,7.2-603.3,233.8-672.9,313.9-96.4,624,479.2,439.1,642.3Z"/>
      <path class="st4" d="M4029.4,1853c-18.8,71.6-77.9,102.1-87.4,181.3-8,67,11.5,202.3,26.2,270.9,10.6,49.2,25.6,96.1,45.9,142-85.5-19.3-100.8-123.7-107-198.8-11-132-19.8-312.2,100.5-395.4,7.3-.3,14.4-.5,21.8,0Z"/>
      <path class="st4" d="M3754.1,1883.6c-38.1-74.9,16.2-165.9-15.3-240.3-4.2,6-1.7,14.8-2.2,21.8-16.4,10.2-17.5,61.3,0,69.9-.5,10.7-4.6,122.6-10.9,122.3-24.1-44-102.3-188.8-85.2-233.8,1.6-4.2,7.9-8.9,13.1-4.4,11.8,10.4,22.7,156.7,61.2,166l-61.2-183.5c8.2-5.6,14.1-33.3,17.5-37.1,144.1,33.8,140.1,212.6,83,319Z"/>
      <path class="st13" d="M4789.6,1263.1c19.8,31.6,34,67.5,52.4,98.3,13.3,22.1,25.9-4.2,35,54.6l-17.5,48.1c-18.3,10.5-31,14.4-52.4,13.1l-218.5-181.3,144.2,85.2c116.6,65-1.6-125.9-13.1-170.4-2.1-8.2-1.3-31.8-6.6-43.7l76.5,96.1Z"/>
      <path class="st4" d="M4488.2,2359.8c-15.9-17-4.8-35.6-13.1-65.5-3.5-12.5,2.8-14.5-13.1-21.8,20.8-137.5-80-248.2-174.8-332.1,41.3,21.1,73.1,21.7,115.8,56.8,93.4,76.7,160.5,255.1,85.2,362.7Z"/>
      <path class="st8" d="M3269.1,2346.7l26.2-8.7c96.6,155.2,264.9,234.7,402,67.7,10-12.2,39.5-91.3,59-59,16,26.6-67.5,119.2-91.8,135.4-125.3,84-372.9,20.8-395.4-135.4Z"/>
      <path class="st16" d="M3666.7,2172c-21.3,32.9-32,76.1-56.8,107-83.4,103.9-197.6,41.9-257.8-50.2.4-11.6-.3-23.4,0-35,26.2,16.5,45.3,53.2,80.8,65.5,87.8,30.5,180.3-23.4,227.2-96.1l6.6,8.7Z"/>
      <polygon class="st7" points="2961.1 3513.3 3046.3 3528.6 3039.7 3701.2 2954.5 3694.7 2961.1 3513.3"/>
      <path class="st7" d="M3966,3347.3l65.5,353.9c-13.3-2.7-66.4,6.4-72.1-6.6-19.7-44.5,17.4-283.3,6.6-347.4Z"/>
      <path class="st7" d="M3299.7,1853c-1,4.4-3.4,5.5-4.4,13.1-17.6,137.3,79.3,469.5,273.1,358.3,104.1-59.8,123.4-252.8,146.4-358.3,4.3,10.5,12.7,51.5,15.3,52.4,4,1.5,55.3-51.5,59,13.1-77.4-43.2-78.1,68.5-91.8,109.2-38.2,114.3-133,274.2-277.5,196.6-95.4-51.3-183.6-320.5-124.5-406.3,10.1,1.5,6.5,12.4,4.4,21.8Z"/>
      <path class="st7" d="M3631.8,1612.7c35.2-86.9,17.5-131.5-80.8-139.8-128.5-10.9-316.4,72.5-369.2,196.6-16.1-5.9,2-51.1,8.7-63.4,38.5-70.3,199.6-151.7,277.5-159.5,116.6-11.6,253.3,30.5,163.8,166Z"/>
      <path class="st7" d="M3190.5,2285.6c33.8-62.1-4-52.1-26.2-89.6-59.9-101,8-221.3-65.5-336.4-47.7-74.7-202.7-168.8-253.4-54.6-6.4-22.7-34-26.4,10.9-56.8,127.8-86.3,266.8,82.1,290.6,198.8,13.1,64.3-2,142.1,13.1,201,13.5,52.8,101.8,80.3,30.6,137.6Z"/>
      <path class="st7" d="M5265.9,1997.2c-56.2-110.6-154.6-217.2-209.7-325.5-20-39.3-22.5-51.9-30.6-93.9-.4-2.1,5.9-7.4,4.4-17.5-9-58.1-51.1-101.1-87.4-144.2-.9-4.5-5.6-15.6-8.7-19.7l10.9-2.2c8.8,2.2,61.3,69,67.7,80.8,37.6,69.4,20.3,119.8,65.5,201,29,52.1,204.8,269,201,305.9-.6,5.5-11.7,13-13.1,15.3Z"/>
      <path class="st7" d="M2465.2,1984.1c-51,4.1-154,28.3-166,89.6-6,30.7,15,77.3,8.7,96.1-7.8,23.3-94.7,30.2-104.9,69.9-18.4,71.7,73.6,118.3,65.5,190.1-28.3-16.6-14.7-45.9-21.8-63.4-17-41.7-85.1-47.6-56.8-135.4,15.8-49.2,97.7-59.7,100.5-65.5,4.9-10.2-12.4-30.8-13.1-39.3-9-108.7,84.1-159.1,181.3-163.8,10.4,5.2,4.6,15.8,6.6,21.8Z"/>
      <path class="st7" d="M2810.3,1778.7c-117.9-78.2-311.6,38.9-319,177-1.1,19.9,7,47.5,8.7,67.7.6,7.2,11.1,35.5-2.2,35-94.6-175.7,115.1-385.5,292.7-314.6,17.5,7,49.2,19.5,19.7,35Z"/>
      <path class="st4" d="M3983.5,2289.9c16.9,31,45.9,70.8,74.3,91.8,37.6,27.8,104.7,28.9,91.8,78.6-124.6,20-158.9-64.2-166-170.4Z"/>
      <path class="st16" d="M4370.2,2298.7c-32,89.6-95.3,199.1-205.4,139.8,0-.9-11-10-2.2-17.5,93.5-10.5,154.9-66.6,207.5-139.8.5,5.7-.8,11.9,0,17.5Z"/>
      <path class="st7" d="M5078,2067.1c-10.7-3.9-16.4-3.9-21.8-15.3-9.8-20.4-19.1-84.1-30.6-113.6-20.8-53.3-74.7-190.4-104.9-231.6-47.5-64.7-170.4-75.7-157.3-168.2.5,59.7,72.2,71,111.4,104.9,102.5,88.6,172.4,294.8,203.2,423.8Z"/>
      <path class="st19" d="M4287.2,1940.4c94.7,83.9,195.6,194.6,174.8,332.1-1.2-.5-3.1.4-4.4,0h-4.4c-2.4-139.3-104.3-264.3-218.5-336.4l8.7-13.1c10.5,6.2,32.2,11.6,43.7,17.5Z"/>
      <path class="st1" d="M4403,2128.3c53.6,75.3,34,175.9,26.2,262.2-51.2-80.4-40.4-172.5-26.2-262.2Z"/>
      <path class="st18" d="M2548.2,2351.1c32.9,60.1,89.8,109.8,157.3,126.7,7.9,75-72.1,26.9-102.7,0-32.1-28.3-64.7-82.2-63.4-124.5.5-14,1-3.4,8.7-2.2Z"/>
      <path class="st18" d="M2840.9,1857.4c49.2,37.7,97.5,37.5,131.1,96.1,7.8,13.6,12,29.2,17.5,43.7-67.7-82-171.4-120-266.5-56.8,15.1-19.7,84.5-78.5,104.9-83,.6-.1,4.6,8.7,13.1,0Z"/>
      <path class="st11" d="M2513.2,2088.9c1.9,1,8.4,4,8.7,4.4,12.1,14.7,11.3,78.8,13.1,100.5-14.7,20.1-56.6.3-69.9-13.1-43.1-43.3-9.4-121.4,48.1-91.8Z"/>
      <path class="st4" d="M4116.8,1809.3c34.6,29.4,90.4,92.3,126.7,113.6l-8.7,13.1c-111.8-70.7-104.9-6.4-174.8-144.2,15.6,2,43.1,11,56.8,17.5Z"/>
      <path class="st7" d="M2932.7,2451.6c-6.7,4.3-17.8,13.4-21.8,19.7-45.4,69.7,2.5,298.4-8.7,386.7-.6-.1-2,7.7-10.9,4.4-19.1-16.8-19.4-354.3,2.2-395.4,18.4-34.9,20.4-26.1,39.3-15.3Z"/>
      <path class="st7" d="M2950.2,3159.4c-37.6-14-100.5,40.1-104.9,72.1-2,14.7,1,145.6,4.4,161.7,6.9,32.9,30.9,56.8,52.4,80.8-25.7-14.3-65.6-48.4-74.3-76.5-2.7-8.6-1.9-170,0-179.1,7.2-34.5,88.7-99.9,122.3-59Z"/>
      <path class="st11" d="M2198.6,1394.2l144.2-187.9c-.7,57.3-93.9,177.5-118,233.8-5.5,2.2-24.5-40.7-26.2-45.9Z"/>
      <path class="st11" d="M2054.4,1437.9c-13.5,19.6,22.5,81.2,17.5,93.9-18.9,47.3-112.7-107.4-65.5-128.9,9.4-4.4,19.1-8.4,28.4-13.1,8.6,2,16.2,39,19.7,48.1Z"/>
      <path class="st20" d="M1975.8,1477.2c-27.7,72.4-4.1,156.4-17.5,233.8-4.7,27-49.4,111.7-48.1,118,7.9,36.1,124.9,36.8,152.9,19.7-1.8,3.2,7.1,5.3,2.2,8.7-29.5,20.8-162.6,12.3-168.2-37.1-.7-6.1,43.2-85.6,48.1-113.6,13.9-80.6-8.1-169.3,17.5-249.1,11.2-7.7,10.6,15,13.1,19.7Z"/>
      <path class="st14" d="M2511,2215.6l8.7,8.7c-24.9,72.4-48.8,149.3-91.8,214.1-28.7-92.3,49.4-146.8,83-222.8Z"/>
      <path class="st16" d="M3631.8,1673.9l-312.4,161.7-15.3-13.1c68.2-70.1,256.2-76.6,321.1-179.1,12.6,1.7,4.3,22.1,6.6,30.6Z"/>
      <path class="st13" d="M3789.1,1931.6c3.2,56.5-46.7,90.6-91.8,109.2,13.6-40.8,14.4-152.5,91.8-109.2Z"/>
      <path class="st7" d="M3754.1,1883.6c57.1-106.4,61.1-285.1-83-319,25.8-28.7,89.1,23.5,104.9,45.9,50.3,71.3,37.7,213.5-21.8,273.1Z"/>
      <path class="st11" d="M2102.5,1512.2l-35-157.3c14.2-5.2,18.8-5.2,30.6,6.6-6.8,29,39.5,114.9,39.3,131.1s-22.8,22.6-35,19.7Z"/>
      <path class="st11" d="M2198.6,1136.4c18.6,31.5-23.7,182.3-21.8,225-2.9,5.6-23.8-9.6-26.2-10.9l48.1-214.1Z"/>
      <path class="st7" d="M4732.8,1381.1l-144.2-85.2,218.5,181.3c-8.6-.5-20.5-1.3-28.4-4.4-16.3-6.2-173.4-141.5-185.7-159.5-74.9-109.7,123.3,55.2,139.8,67.7Z"/>
      <path class="st7" d="M2124.3,1372.4c-3,34.9,41.1,99.6,35,128.9-3.7,17.7-72.3,67.6-78.6,100.5-3.2,16.5,4,31.2,4.4,45.9-43-27.9-15.8-86.1,15.3-113.6,10.7-9.5,45.8-12,50.2-32.8,4.6-21.7-54.3-119.7-32.8-133.3,2.2,2.2,3.1,4.2,6.6,4.4Z"/>
      <path class="st7" d="M2522,2289.9c-35.9,83.5-56,200.2-157.3,227.2-.7-7-10.3-5.9,2.2-17.5,93.9-32.7,116.4-148.2,150.7-229.4,8.5-2.6,2.9,16.1,4.4,19.7Z"/>
      <path class="st7" d="M2198.6,1136.4l-48.1,214.1c-5.5-3.1-20.9,6.9-17.5-10.9,13.3-30.7,24.4-202.7,50.2-211.9,14.6-5.2,12.1,3.3,15.3,8.7Z"/>
      <path class="st13" d="M4933.8,1538.4c-36,16.1-46.3-122.3-48.1-144.2,39.7,23.6,47.3,102.9,48.1,144.2Z"/>
      <path class="st7" d="M2342.8,1206.3l-144.2,187.9c-10-30.7,11.3-22.9,30.6-50.2,15.7-22.3,87.3-149.4,107-150.7,17-1.1,6.6,12.1,6.6,13.1Z"/>
      <path class="st7" d="M4053.4,2464.7c22.6,14.1,133.2-9.7,107,41.5-2.6,5-54.8,17.6-59,15.3-5-2.7,6-7.9,2.2-10.9-16.3-12.8-42.3-25.9-50.2-45.9Z"/>
      <path class="st13" d="M4809.3,3347.3c10.3-2,13.5,5,19.7,10.9,7.6,23.3-48.8,88.1-72.1,80.8-17.3-16.9,43.3-90,52.4-91.8Z"/>
      <path class="st1" d="M4457.6,2272.5l17.5,21.8c8.3,29.9-2.8,48.5,13.1,65.5-10.4,14.8-28.3,34.3-48.1,32.8-3-5.3,13.4-103.8,13.1-120.2h4.4Z"/>
      <path class="st13" d="M3269.1,1953.5c6.2,17.8,6.4,48.4,13.1,67.7-38.4,8.4-67-67.1-65.5-93.9,29.4-16.6,31.5,21.4,52.4,26.2Z"/>
      <path class="st7" d="M2006.4,1403c-47.2,21.5,46.7,176.2,65.5,128.9,5.1-12.7-31-74.4-17.5-93.9,12.3,32,58.8,137.2-15.3,104.9-24.7-10.8-68.8-97.1-63.4-120.2,2.9-12.1,23.2-16.2,30.6-19.7Z"/>
      <path class="st7" d="M4933.8,1538.4c-.8-41.3-8.4-120.6-48.1-144.2,0-1.2-8.8-16.4-4.4-24,51.6-.6,86.5,153,52.4,168.2Z"/>
      <path class="st13" d="M4796.2,3299.2c35.5,11.9-50.3,94.7-52.4,113.6-24-22.8,37.9-118.5,52.4-113.6Z"/>
      <path class="st13" d="M4800.6,3439.1c73.9-13.6-21.2,87-39.3,61.2-12.6-17.9,25.4-58.6,39.3-61.2Z"/>
      <path class="st14" d="M2414.9,2346.7c-15.4,24.4,8.9,130.1-17.5,131.1-27.1,1-11.6-118.1,17.5-131.1Z"/>
      <path class="st14" d="M3015.7,2084.6c-9.1-28.7-15.5-59.2-26.2-87.4-5.5-14.5-9.7-30.1-17.5-43.7,35.1-5.4,51.7,77.7,52.4,102.7s-8.5,26.1-8.7,28.4Z"/>
      <path class="st7" d="M4064.3,2530.2l-65.5-74.3c4.9,1.6,16-1.8,19.7,0,18.1,8.8,54,52.3,76.5,63.4-.9,11.7-24.4,8.9-30.6,10.9Z"/>
      <path class="st20" d="M4789.6,1263.1l-76.5-96.1c5.3,11.9,4.4,35.5,6.6,43.7-49.7-153.4,48.7,18.5,69.9,52.4Z"/>
      <path class="st7" d="M2067.5,1354.9l35,157.3c-15.9-3.9-56.4-130.1-52.4-146.4s12.2-9,17.5-10.9Z"/>
      <path class="st7" d="M3186.1,1778.7l48.1,113.6c-37.6-21.9-61.5-68.2-61.2-111.4,2.3-4.3,9.4-1.3,13.1-2.2Z"/>
      <path class="st7" d="M3352.1,2193.8c-.3,11.6.4,23.4,0,35-1.3,35.9-4.8,93.1-43.7,104.9-3.5-23.9,16.1-19.8,26.2-50.2,7.6-22.8,6.8-66.7,8.7-91.8l6.6-6.6c3.3-.7,1.8,8.5,2.2,8.7Z"/>
      <path class="st7" d="M4440.1,2438.5c-39.4-26.4-63.4-93.6-69.9-139.8-.8-5.6.5-11.8,0-17.5,1.6-2.3-4.2-18.8,8.7-10.9,7.3,59.7,23.2,120.6,61.2,168.2Z"/>
      <path class="st7" d="M5086.8,2163.2c3.2,6.8-1.7,19.7,4.4,28.4,20.8,29.6,57.4,36.1,83,59-26.7-6.7-87.3-35.3-100.5-59-19.3-34.9.5-54.9,13.1-28.4Z"/>
      <path class="st0" d="M2102.5,2884.2c-.8.2-12.7,6.3-13.1,8.7-8.6-4-63.2-81.3-74.3-96.1,32.6,20.9,68.5,53.5,87.4,87.4Z"/>
      <path class="st8" d="M3893.9,2390.4c10.1,10.5,39,37.4,39.3,13.1,4.3,9.1,14.3,21.1,21.8,28.4-50.9,5.7-76-22.2-96.1-63.4,11.9,7.8,16.5,29.8,35,21.8Z"/>
      <path class="st7" d="M2513.2,2088.9c-57.5-29.6-91.1,48.4-48.1,91.8-63.8-44.7-10.8-149.4,48.1-91.8Z"/>
      <path class="st7" d="M5064.9,2080.2l4.4,32.8,65.5,50.2c-38.6-8.7-96.1-33.6-83-80.8,3.4-12.4,12.5-2.1,13.1-2.2Z"/>
      <path class="st13" d="M4804.9,3504.6c44.6-11.9,24,34.5-8.7,30.6-14-11.1-5.4-26.8,8.7-30.6Z"/>
      <path class="st7" d="M3269.1,1953.5c-20.9-4.9-23-42.8-52.4-26.2.3-5-.2-10.2,0-15.3,26-21.1,45.4,21.5,52.4,41.5Z"/>
      <path class="st5" d="M3736.6,1665.1c-1.7,23,1,46.8,0,69.9-17.5-8.6-16.4-59.7,0-69.9Z"/>
      <path class="st14" d="M3070.3,2215.6c31.7,16,36.3,67.3,21.8,96.1,5.7-36.5-2-65.1-21.8-96.1Z"/>
      <path class="st7" d="M3124.9,3203.1c10.1-13.6,23.5-38.2,21.8-56.8.7,0,8.5-5.3,13.1,2.2,3.7,16.5-20.1,45.4-35,54.6Z"/>
      <path class="st7" d="M4859.5,1464.1l17.5-48.1c1.6,10.2,8.1,27.2,4.4,37.1-4.5,11.9-18.8,9.2-21.8,10.9Z"/>
      <path class="st7" d="M3295.3,2338l-26.2,8.7c-4.4-30.2,9.7-35.3,26.2-8.7Z"/>
      <path class="st20" d="M2840.9,1857.4c-8.5,8.7-12.5-.1-13.1,0l4.4-48.1v-4.4c13.1,21.7,16.9,24.2,8.7,52.4Z"/>
      <path class="st12" d="M4481.6,2438.5l59,10.9c-14.6,1.5-59.6,10.6-59-10.9Z"/>
      <path class="st7" d="M2163.7,1376.7c-11.6,4.1-27.1-3.9-35-4.4,12.5-21.5,25.4-2.2,35,4.4Z"/>
      <path class="st0" d="M2015.1,2796.8c-.4-.6-10.6.3-13.1-6.6,7.7-8,11.6,5.6,13.1,6.6Z"/>
      <path class="st10" d="M3745.4,3373.5c-.8-1.6-7.7,12.3-17.5-24-33.1-123.4-32.5-281.9-65.5-408.5l-2.2-8.7-775.6-2.2,784.3-10.9,76.5,454.4Z"/>
      <g>
        <path class="st14" d="M3190.5,2285.6c-16,29.4-45.7,63-80.8,61.2,20.6-39.2,38.8-69.2,24-115.8-9.8-31-74.2-75.2-98.3-50.2,80.9,3.7,124.1,97.9,56.8,152.9,46.8-65,7.6-164.3-80.8-133.3,52.4,1.5,75.6,52.7,69.9,100.5-9.9,82.7-101.4,69.1-155.1,111.4,36-71.8-34.1,11.5-52.4,26.2-40.7,32.6-110.1,59.7-91.8,126.7,14.7-65.2,56.6-90.2,111.4-120.2-33.7,53.3-24.5,122.9-26.2,183.5-7.9,18.6-148.2-47.6-152.9-65.5-2.3-8.8,11.4-83.1,15.3-85.2s55.1-3.4,69.9-8.7c155-55.7,329.9-434.5,157.3-563.6-18-13.5-101.9-47.4-104.9-52.4-1.2-2.1-2.1-32.2-6.6-48.1,50.7-114.1,205.7-20.1,253.4,54.6,73.5,115.2,5.7,235.4,65.5,336.4,22.2,37.5,60,27.4,26.2,89.6Z"/>
        <path class="st10" d="M2882.4,1804.9c103,40.8,203.7,58.8,220.7,185.7,1.5,10.9,7.9,168.3-2.2,168.2-31.1-102,23.6-209.4-78.6-279.6-40.8-28-107.2-39.1-139.8-74.3Z"/>
      </g>
      <g>
        <path class="st19" d="M4531.8,2338c-5.8,5.1-15.1,24.7-26.2,10.9,60.4-123-2.1-297.6-111.4-373.6s-98.6-37.8-139.8-61.2c-46.9-26.6-81.4-78.4-137.6-104.9-13.7-6.5-41.2-15.5-56.8-17.5-1.8-3.6-15.6-36.5-21.8-24-4.9,24.8-2.7,62.3-8.7,85.2-7.4-.5-14.5-.3-21.8,0-156,6.7-120.5,451.9-74.3,550.5-.3,24.2-29.3-2.6-39.3-13.1-86.6-90.5-36.6-386.9,8.7-495.9,51.1-122.7,188.3-203.7,321.1-181.3,208.8,35.2,427.7,433.4,308,624.8Z"/>
        <path class="st10" d="M4123.3,1761.2c135.6-18.3,206.2,100.1,290.6,181.3-112.8-69.4-158.1-208.2-321.1-163.8l4.4-13.1c9.5,4,21.3-3.7,26.2-4.4Z"/>
      </g>
      <path class="st13" d="M5029.9,1560.3c1.6,10.1-4.8,15.3-4.4,17.5-32.5,8.1-49.6-28.8-52.4-54.6l56.8,37.1Z"/>
      <g>
        <path class="st14" d="M2810.3,1778.7c1.4.9,21,24.8,21.8,26.2v4.4c-.7,52.3-54.7,57.5-89.6,87.4-32.4,27.8-186.5,187.8-218.5,183.5-1.4-.2-9-10.5-15.3-10.9,83.1-83.5,137.7-221.9,270.9-235.9-132.7-19-179.3,132.1-264.3,203.2l-15.3-13.1c-1.7-20.2-9.8-47.9-8.7-67.7,7.3-138.1,201.1-255.2,319-177Z"/>
        <path class="st10" d="M2751.3,1804.9c7,0,23.3-3.4,21.8,8.7-120.9,5.3-187.5,73.6-264.3,155.1,38.1-84.5,148.9-162.9,242.5-163.8Z"/>
      </g>
      <g>
        <path class="st4" d="M3177.4,1765.6c6.7-77.1,73.7-97.1,128.9-135.4,2.3-1.6,18.6-14.4,2.2-13.1,56.4-34.4,85.1-73.6,163.8-78.6,13-.8,96.8,9,104.9,13.1,29.3,15.1-67.6,97.7-83,109.2-50.9,38.3-261.4,143.5-316.8,104.9Z"/>
        <path class="st7" d="M3177.4,1765.6c-20.7-14.4-1.8-58.4,4.4-76.5,46.7-17,85-46.6,126.7-72.1,16.4-1.3.1,11.5-2.2,13.1-55.2,38.4-122.2,58.3-128.9,135.4Z"/>
        <path class="st10" d="M3454.8,1595.2l2.2,10.9c-61,52.2-136.8,110.4-218.5,118,80.3-32.5,152-69.9,216.3-128.9Z"/>
      </g>
      <path class="st10" d="M4475,2294.3l-17.5-21.8c1.3.4,3.2-.5,4.4,0,15.9,7.3,9.6,9.3,13.1,21.8Z"/>
      <g>
        <path class="st3" d="M3662.4,2941c33.1,126.6,32.4,285.2,65.5,408.5,9.7,36.3,16.7,22.5,17.5,24,16.5,31.9,3.8,27.5,0,48.1h-526.5c194.6-124.3-67.5-67.5-135.4-39.3,57.8-49.7,177.6-72.4,185.7-159.5-17.5-52.8-182.6,53.5-216.3,63.4,19.9-21.4,146-112.6,115.8-146.4-35.1-39.2-206.5,86-246.9,98.3,33.2-39.1,84.6-84.2,2.2-104.9l-26.2-67.7-28.4-128.9,793,4.4Z"/>
        <g>
          <path class="st10" d="M3323.7,3072c73.5-18.1,77.2,76.8,30.6,87.4-63.8,14.4-78.4-75.6-30.6-87.4Z"/>
          <path class="st7" d="M3332.5,3080.8c53.5-9.7,50.7,68.6,8.7,69.9-38.1,1.2-45.7-63.2-8.7-69.9Z"/>
        </g>
      </g>
      <g>
        <path class="st11" d="M2989.5,1997.2c10.7,28.2,17.1,58.6,26.2,87.4-5.5,56.4-17.6,87.8-39.3,139.8-66.6,113.8-169.8,312.4-329.9,201-107-74.5-100.5-220.1-107-336.4,72-30.3,124.9-109.7,183.5-148.6,95.1-63.2,198.8-25.2,266.5,56.8Z"/>
        <path class="st7" d="M2539.4,2088.9c6.6,116.3,0,261.9,107,336.4,160.1,111.5,263.3-87.2,329.9-201-56.1,134.6-174.9,323.9-343,205.4-91.8-64.7-90.3-139.6-98.3-235.9-1.8-21.7-1-85.8-13.1-100.5,7.2-10.7,16.5-4,17.5-4.4Z"/>
        <path class="st10" d="M2707.7,2088.9c36.8-8.6,24.5,58.1,0,56.8-20.4-1.1-20.7-52,0-56.8Z"/>
        <path class="st10" d="M2899.9,2154.5c45.2-17,20.9,88.8-15.3,41.5-3.2-9.6,8-38.7,15.3-41.5Z"/>
        <path class="st10" d="M2707.7,2014.7c20.3-1.6,63.4,6.7,67.7,32.8-36-17.7-63.5-20.8-102.7-6.6-18.5-13.4,31-25.9,35-26.2Z"/>
        <path class="st10" d="M2830,2158.8c10.6,44.9,10.3,103.9-48.1,104.9,56.4-27.7,25.8-57.7,48.1-104.9Z"/>
        <path class="st10" d="M2904.3,2084.6c30.7-9.9,81.1,9.6,93.9,41.5l-10.9,2.2c-21.2-28.1-53.7-36-87.4-35-4.3-2.2,3.1-8.3,4.4-8.7Z"/>
        <g>
          <path class="st10" d="M2668.3,2276.8c6.6-5,70.7,30.5,83,35,17.8,6.5,81.9,9.3,80.8,28.4-.5,9.7-40.1,38.7-50.2,41.5-62.5,17.1-117.4-44.5-113.6-104.9Z"/>
          <path class="st7" d="M2685.8,2294.3l128.9,50.2c-46.5,55.9-132,19.3-128.9-50.2Z"/>
        </g>
      </g>
      <g>
        <path class="st13" d="M3714.8,1866.1c-23,105.5-42.2,298.5-146.4,358.3-193.8,111.2-290.7-221-273.1-358.3,23.7,10.4,36.9-24,63.4-30.6s38.1,4.7,54.6-2.2c-33.8-30.8-80.8,2-113.6,19.7,2.2-9.4,5.7-20.4-4.4-21.8,3.2-4.7,5.4-5.4,8.7-8.7l15.3,13.1,312.4-161.7c19.6,73.8,55.4,124.6,83,192.3Z"/>
        <path class="st10" d="M3384.9,1896.7c34.8-12.4,36.2,55.2,17.5,61.2-27.1,8.6-38.5-46.4-17.5-61.2Z"/>
        <path class="st10" d="M3585.9,1888c3.1-1.1,12.3-.8,15.3,2.2,42.8,122-70.7,16.9-15.3-2.2Z"/>
        <path class="st10" d="M3295.3,1866.1c1-7.6,3.3-8.7,4.4-13.1,32.8-17.7,79.8-50.5,113.6-19.7-16.5,6.8-38.6-1.8-54.6,2.2-26.5,6.6-39.6,41-63.4,30.6Z"/>
        <path class="st10" d="M3467.9,1944.8c22.6,19.6-7.2,74.7-6.6,80.8,1,9.5,35.6,19.1,32.8,32.8-67.6-14.3-26.7-66.6-26.2-113.6Z"/>
        <path class="st10" d="M3577.1,1813.7c6.2-1,86.7,4,72.1,24-8.1,11.1-32.3-10.4-37.1-10.9-16-1.6-65.4,11.3-61.2,0,5.4-3.9,21-12.2,26.2-13.1Z"/>
        <g>
          <path class="st10" d="M3533.5,2110.8c8.9-.2,33.9-4.6,37.1,6.6-29.2,95.7-135.8,83.9-159.5-2.2,40.8,4,82-3.5,122.3-4.4Z"/>
          <path class="st7" d="M3516,2123.9c8.6,0,33.8-3.3,37.1,6.6-32.2,61.4-82.4,54.2-122.3,4.4.8-6.1,76.5-11,85.2-10.9Z"/>
        </g>
      </g>
      <g>
        <path class="st13" d="M4387.7,2102c-8.3,96.4-40.8,204.5-124.5,262.2-110.2,75.9-191.8,22.2-255.6-76.5l-48.1-115.8c-7.5-46.3-13.9-109.3-4.4-155.1,14.6-70.1,102.2-121.3,93.9-207.5,15.4,11,18,40.4,28.4,54.6,30.8,42.3,104.8,56,150.7,85.2,26.8,17.1,150.9,128.2,159.5,152.9Z"/>
        <path class="st20" d="M3959.5,2172l48.1,115.8c63.8,98.7,145.4,152.4,255.6,76.5,83.7-57.7,116.2-165.8,124.5-262.2,28.2,81.1-44.1,215.3-111.4,262.2-166,115.6-290.9-32-316.8-192.3Z"/>
        <path class="st10" d="M4035.9,2093.3c4-1.4,12.3,1,17.5,0,14.5,10,16.4,51.6,0,56.8-29.8,8.6-37.1-49.8-17.5-56.8Z"/>
        <path class="st10" d="M4236.9,2049.6c28.3-9.3,30.5,50.7,17.5,56.8-24.4,11.4-40.5-49.3-17.5-56.8Z"/>
        <path class="st10" d="M4110.2,2106.4c22.7,22.7,1.7,83.3,6.6,98.3,2.8,8.7,32.1,12.1,28.4,24-18.9,2.5-29.9-12.3-41.5-24l6.6-98.3Z"/>
        <path class="st10" d="M4014.1,2023.4c9.9-1,47.2,1.4,43.7,17.5-42-16.7-58.8,7.9-93.9,19.7-8-13.4,42.1-36.3,50.2-37.1Z"/>
        <path class="st10" d="M4202,1984.1c6.4-1,74.1-3.1,63.4,15.3-29.1-15.3-81.2,11-93.9,10.9-25-.2,25.7-25.4,30.6-26.2Z"/>
        <g>
          <path class="st10" d="M4228.2,2233.1c4.3-.2,8.8.2,13.1,0,13.1,8.6-45.3,135.8-135.4,83-5.2-3-36.9-38.5-37.1-41.5-1.7-21.6,85.7-16.1,107-19.7,10.2-1.7,47.7-21.6,52.4-21.8Z"/>
          <path class="st7" d="M4219.4,2250.6c21.8,6.1-37.1,62.4-52.4,65.5-35.6,7.2-58.8-11.8-80.8-37.1l133.3-28.4Z"/>
        </g>
      </g>
    </g>
  </g>
</svg>